<svg xmlns="http://www.w3.org/2000/svg" viewBox="0 0 900 270" width="900" height="270" role="img" aria-label="A line of creatures running forever">
<defs>
  <linearGradient id="sky" x1="0" y1="0" x2="0" y2="1">
    <stop offset="0%" stop-color="#5FC4F0"/>
    <stop offset="62%" stop-color="#AEE7FA"/>
    <stop offset="100%" stop-color="#DFF6E4"/>
  </linearGradient>
  <linearGradient id="dirt" x1="0" y1="0" x2="0" y2="1">
    <stop offset="0%" stop-color="#6FBE72"/>
    <stop offset="100%" stop-color="#4E9457"/>
  </linearGradient>
  <clipPath id="fr"><rect width="900" height="270" rx="12"/></clipPath>
</defs>
<g clip-path="url(#fr)">
  <rect width="900" height="270" fill="url(#sky)"/>
  <circle cx="792" cy="52" r="30" fill="#FFE973" opacity="0.95"/>
  <circle cx="792" cy="52" r="44" fill="#FFE973" opacity="0.22"/>

  <g><g><g transform="translate(212,26) scale(0.86)" opacity="0.92"><ellipse cx="0" cy="0" rx="26" ry="14" fill="#fff"/><ellipse cx="-18" cy="5" rx="18" ry="11" fill="#fff"/><ellipse cx="18" cy="5" rx="20" ry="12" fill="#fff"/></g><g transform="translate(139,23) scale(0.86)" opacity="0.92"><ellipse cx="0" cy="0" rx="26" ry="14" fill="#fff"/><ellipse cx="-18" cy="5" rx="18" ry="11" fill="#fff"/><ellipse cx="18" cy="5" rx="20" ry="12" fill="#fff"/></g><g transform="translate(826,77) scale(1.10)" opacity="0.92"><ellipse cx="0" cy="0" rx="26" ry="14" fill="#fff"/><ellipse cx="-18" cy="5" rx="18" ry="11" fill="#fff"/><ellipse cx="18" cy="5" rx="20" ry="12" fill="#fff"/></g><g transform="translate(200,58) scale(0.78)" opacity="0.92"><ellipse cx="0" cy="0" rx="26" ry="14" fill="#fff"/><ellipse cx="-18" cy="5" rx="18" ry="11" fill="#fff"/><ellipse cx="18" cy="5" rx="20" ry="12" fill="#fff"/></g><g transform="translate(155,26) scale(0.74)" opacity="0.92"><ellipse cx="0" cy="0" rx="26" ry="14" fill="#fff"/><ellipse cx="-18" cy="5" rx="18" ry="11" fill="#fff"/><ellipse cx="18" cy="5" rx="20" ry="12" fill="#fff"/></g><g transform="translate(835,79) scale(1.12)" opacity="0.92"><ellipse cx="0" cy="0" rx="26" ry="14" fill="#fff"/><ellipse cx="-18" cy="5" rx="18" ry="11" fill="#fff"/><ellipse cx="18" cy="5" rx="20" ry="12" fill="#fff"/></g><g transform="translate(720,32) scale(0.80)" opacity="0.92"><ellipse cx="0" cy="0" rx="26" ry="14" fill="#fff"/><ellipse cx="-18" cy="5" rx="18" ry="11" fill="#fff"/><ellipse cx="18" cy="5" rx="20" ry="12" fill="#fff"/></g></g><g transform="translate(900,0)"><g transform="translate(212,26) scale(0.86)" opacity="0.92"><ellipse cx="0" cy="0" rx="26" ry="14" fill="#fff"/><ellipse cx="-18" cy="5" rx="18" ry="11" fill="#fff"/><ellipse cx="18" cy="5" rx="20" ry="12" fill="#fff"/></g><g transform="translate(139,23) scale(0.86)" opacity="0.92"><ellipse cx="0" cy="0" rx="26" ry="14" fill="#fff"/><ellipse cx="-18" cy="5" rx="18" ry="11" fill="#fff"/><ellipse cx="18" cy="5" rx="20" ry="12" fill="#fff"/></g><g transform="translate(826,77) scale(1.10)" opacity="0.92"><ellipse cx="0" cy="0" rx="26" ry="14" fill="#fff"/><ellipse cx="-18" cy="5" rx="18" ry="11" fill="#fff"/><ellipse cx="18" cy="5" rx="20" ry="12" fill="#fff"/></g><g transform="translate(200,58) scale(0.78)" opacity="0.92"><ellipse cx="0" cy="0" rx="26" ry="14" fill="#fff"/><ellipse cx="-18" cy="5" rx="18" ry="11" fill="#fff"/><ellipse cx="18" cy="5" rx="20" ry="12" fill="#fff"/></g><g transform="translate(155,26) scale(0.74)" opacity="0.92"><ellipse cx="0" cy="0" rx="26" ry="14" fill="#fff"/><ellipse cx="-18" cy="5" rx="18" ry="11" fill="#fff"/><ellipse cx="18" cy="5" rx="20" ry="12" fill="#fff"/></g><g transform="translate(835,79) scale(1.12)" opacity="0.92"><ellipse cx="0" cy="0" rx="26" ry="14" fill="#fff"/><ellipse cx="-18" cy="5" rx="18" ry="11" fill="#fff"/><ellipse cx="18" cy="5" rx="20" ry="12" fill="#fff"/></g><g transform="translate(720,32) scale(0.80)" opacity="0.92"><ellipse cx="0" cy="0" rx="26" ry="14" fill="#fff"/><ellipse cx="-18" cy="5" rx="18" ry="11" fill="#fff"/><ellipse cx="18" cy="5" rx="20" ry="12" fill="#fff"/></g></g><animateTransform attributeName="transform" type="translate" values="0,0; -900,0" dur="46.0s" repeatCount="indefinite"/></g>
  <g><g><polygon points="-40,270 -40,183 18,176 76,182 134,183 192,179 250,174 308,199 366,200 424,179 482,181 540,171 598,172 656,200 714,205 772,183 830,192 888,202 946,206 1004,177 1020,270" fill="#7FCB93"/></g><g transform="translate(900,0)"><polygon points="-40,270 -40,183 18,176 76,182 134,183 192,179 250,174 308,199 366,200 424,179 482,181 540,171 598,172 656,200 714,205 772,183 830,192 888,202 946,206 1004,177 1020,270" fill="#7FCB93"/></g><animateTransform attributeName="transform" type="translate" values="0,0; -900,0" dur="26.0s" repeatCount="indefinite"/></g>
  <g><g><polygon points="-40,270 -40,204 4,219 48,210 92,202 136,202 180,212 224,219 268,205 312,210 356,209 400,208 444,221 488,220 532,218 576,207 620,201 664,214 708,196 752,210 796,219 840,206 884,211 928,202 972,204 1016,208 1020,270" fill="#66B77C"/></g><g transform="translate(900,0)"><polygon points="-40,270 -40,204 4,219 48,210 92,202 136,202 180,212 224,219 268,205 312,210 356,209 400,208 444,221 488,220 532,218 576,207 620,201 664,214 708,196 752,210 796,219 840,206 884,211 928,202 972,204 1016,208 1020,270" fill="#66B77C"/></g><animateTransform attributeName="transform" type="translate" values="0,0; -900,0" dur="16.0s" repeatCount="indefinite"/></g>

  <rect x="0" y="213" width="900" height="65" fill="url(#dirt)"/>
  <line x1="0" y1="213" x2="900" y2="213" stroke="#3F8A50" stroke-width="2"/>
  <g><g><path d="M 561,211 q 2,-10 4,0" stroke="#4E9E5E" stroke-width="2" fill="none" stroke-linecap="round"/><path d="M 716,211 q 2,-12 4,0" stroke="#4E9E5E" stroke-width="2" fill="none" stroke-linecap="round"/><path d="M 666,211 q 2,-11 4,0" stroke="#4E9E5E" stroke-width="2" fill="none" stroke-linecap="round"/><path d="M 26,211 q 2,-8 4,0" stroke="#4E9E5E" stroke-width="2" fill="none" stroke-linecap="round"/><path d="M 849,211 q 2,-10 4,0" stroke="#4E9E5E" stroke-width="2" fill="none" stroke-linecap="round"/><path d="M 811,211 q 2,-6 4,0" stroke="#4E9E5E" stroke-width="2" fill="none" stroke-linecap="round"/><path d="M 422,211 q 2,-7 4,0" stroke="#4E9E5E" stroke-width="2" fill="none" stroke-linecap="round"/><path d="M 489,211 q 2,-9 4,0" stroke="#4E9E5E" stroke-width="2" fill="none" stroke-linecap="round"/><path d="M 12,211 q 2,-7 4,0" stroke="#4E9E5E" stroke-width="2" fill="none" stroke-linecap="round"/><path d="M 252,211 q 2,-11 4,0" stroke="#4E9E5E" stroke-width="2" fill="none" stroke-linecap="round"/><path d="M 689,211 q 2,-6 4,0" stroke="#4E9E5E" stroke-width="2" fill="none" stroke-linecap="round"/><path d="M 717,211 q 2,-6 4,0" stroke="#4E9E5E" stroke-width="2" fill="none" stroke-linecap="round"/><path d="M 556,211 q 2,-6 4,0" stroke="#4E9E5E" stroke-width="2" fill="none" stroke-linecap="round"/><path d="M 2,211 q 2,-11 4,0" stroke="#4E9E5E" stroke-width="2" fill="none" stroke-linecap="round"/><path d="M 189,211 q 2,-7 4,0" stroke="#4E9E5E" stroke-width="2" fill="none" stroke-linecap="round"/><path d="M 884,211 q 2,-11 4,0" stroke="#4E9E5E" stroke-width="2" fill="none" stroke-linecap="round"/><path d="M 260,211 q 2,-12 4,0" stroke="#4E9E5E" stroke-width="2" fill="none" stroke-linecap="round"/><path d="M 485,211 q 2,-10 4,0" stroke="#4E9E5E" stroke-width="2" fill="none" stroke-linecap="round"/><path d="M 184,211 q 2,-12 4,0" stroke="#4E9E5E" stroke-width="2" fill="none" stroke-linecap="round"/><path d="M 622,211 q 2,-12 4,0" stroke="#4E9E5E" stroke-width="2" fill="none" stroke-linecap="round"/><path d="M 804,211 q 2,-7 4,0" stroke="#4E9E5E" stroke-width="2" fill="none" stroke-linecap="round"/><path d="M 325,211 q 2,-6 4,0" stroke="#4E9E5E" stroke-width="2" fill="none" stroke-linecap="round"/><path d="M 131,211 q 2,-5 4,0" stroke="#4E9E5E" stroke-width="2" fill="none" stroke-linecap="round"/><path d="M 271,211 q 2,-9 4,0" stroke="#4E9E5E" stroke-width="2" fill="none" stroke-linecap="round"/><path d="M 3,211 q 2,-10 4,0" stroke="#4E9E5E" stroke-width="2" fill="none" stroke-linecap="round"/><path d="M 304,211 q 2,-7 4,0" stroke="#4E9E5E" stroke-width="2" fill="none" stroke-linecap="round"/><path d="M 737,211 q 2,-8 4,0" stroke="#4E9E5E" stroke-width="2" fill="none" stroke-linecap="round"/><path d="M 284,211 q 2,-8 4,0" stroke="#4E9E5E" stroke-width="2" fill="none" stroke-linecap="round"/><path d="M 634,211 q 2,-5 4,0" stroke="#4E9E5E" stroke-width="2" fill="none" stroke-linecap="round"/><path d="M 878,211 q 2,-5 4,0" stroke="#4E9E5E" stroke-width="2" fill="none" stroke-linecap="round"/><path d="M 675,211 q 2,-11 4,0" stroke="#4E9E5E" stroke-width="2" fill="none" stroke-linecap="round"/><path d="M 16,211 q 2,-11 4,0" stroke="#4E9E5E" stroke-width="2" fill="none" stroke-linecap="round"/><path d="M 330,211 q 2,-9 4,0" stroke="#4E9E5E" stroke-width="2" fill="none" stroke-linecap="round"/><path d="M 8,211 q 2,-5 4,0" stroke="#4E9E5E" stroke-width="2" fill="none" stroke-linecap="round"/><path d="M 163,211 q 2,-12 4,0" stroke="#4E9E5E" stroke-width="2" fill="none" stroke-linecap="round"/><path d="M 177,211 q 2,-10 4,0" stroke="#4E9E5E" stroke-width="2" fill="none" stroke-linecap="round"/><path d="M 837,211 q 2,-12 4,0" stroke="#4E9E5E" stroke-width="2" fill="none" stroke-linecap="round"/><path d="M 310,211 q 2,-7 4,0" stroke="#4E9E5E" stroke-width="2" fill="none" stroke-linecap="round"/><path d="M 472,211 q 2,-10 4,0" stroke="#4E9E5E" stroke-width="2" fill="none" stroke-linecap="round"/><path d="M 97,211 q 2,-10 4,0" stroke="#4E9E5E" stroke-width="2" fill="none" stroke-linecap="round"/><path d="M 718,211 q 2,-11 4,0" stroke="#4E9E5E" stroke-width="2" fill="none" stroke-linecap="round"/><path d="M 33,211 q 2,-12 4,0" stroke="#4E9E5E" stroke-width="2" fill="none" stroke-linecap="round"/><path d="M 82,211 q 2,-7 4,0" stroke="#4E9E5E" stroke-width="2" fill="none" stroke-linecap="round"/><path d="M 550,211 q 2,-11 4,0" stroke="#4E9E5E" stroke-width="2" fill="none" stroke-linecap="round"/><ellipse cx="306" cy="259" rx="11" ry="2.5" fill="#3F8A50" opacity="0.5"/><ellipse cx="281" cy="238" rx="8" ry="2.5" fill="#3F8A50" opacity="0.5"/><ellipse cx="70" cy="232" rx="13" ry="2.5" fill="#3F8A50" opacity="0.5"/><ellipse cx="897" cy="233" rx="6" ry="2.5" fill="#3F8A50" opacity="0.5"/><ellipse cx="888" cy="246" rx="10" ry="2.5" fill="#3F8A50" opacity="0.5"/><ellipse cx="214" cy="248" rx="14" ry="2.5" fill="#3F8A50" opacity="0.5"/><ellipse cx="410" cy="242" rx="7" ry="2.5" fill="#3F8A50" opacity="0.5"/><ellipse cx="824" cy="228" rx="11" ry="2.5" fill="#3F8A50" opacity="0.5"/><ellipse cx="755" cy="232" rx="13" ry="2.5" fill="#3F8A50" opacity="0.5"/></g><g transform="translate(900,0)"><path d="M 561,211 q 2,-10 4,0" stroke="#4E9E5E" stroke-width="2" fill="none" stroke-linecap="round"/><path d="M 716,211 q 2,-12 4,0" stroke="#4E9E5E" stroke-width="2" fill="none" stroke-linecap="round"/><path d="M 666,211 q 2,-11 4,0" stroke="#4E9E5E" stroke-width="2" fill="none" stroke-linecap="round"/><path d="M 26,211 q 2,-8 4,0" stroke="#4E9E5E" stroke-width="2" fill="none" stroke-linecap="round"/><path d="M 849,211 q 2,-10 4,0" stroke="#4E9E5E" stroke-width="2" fill="none" stroke-linecap="round"/><path d="M 811,211 q 2,-6 4,0" stroke="#4E9E5E" stroke-width="2" fill="none" stroke-linecap="round"/><path d="M 422,211 q 2,-7 4,0" stroke="#4E9E5E" stroke-width="2" fill="none" stroke-linecap="round"/><path d="M 489,211 q 2,-9 4,0" stroke="#4E9E5E" stroke-width="2" fill="none" stroke-linecap="round"/><path d="M 12,211 q 2,-7 4,0" stroke="#4E9E5E" stroke-width="2" fill="none" stroke-linecap="round"/><path d="M 252,211 q 2,-11 4,0" stroke="#4E9E5E" stroke-width="2" fill="none" stroke-linecap="round"/><path d="M 689,211 q 2,-6 4,0" stroke="#4E9E5E" stroke-width="2" fill="none" stroke-linecap="round"/><path d="M 717,211 q 2,-6 4,0" stroke="#4E9E5E" stroke-width="2" fill="none" stroke-linecap="round"/><path d="M 556,211 q 2,-6 4,0" stroke="#4E9E5E" stroke-width="2" fill="none" stroke-linecap="round"/><path d="M 2,211 q 2,-11 4,0" stroke="#4E9E5E" stroke-width="2" fill="none" stroke-linecap="round"/><path d="M 189,211 q 2,-7 4,0" stroke="#4E9E5E" stroke-width="2" fill="none" stroke-linecap="round"/><path d="M 884,211 q 2,-11 4,0" stroke="#4E9E5E" stroke-width="2" fill="none" stroke-linecap="round"/><path d="M 260,211 q 2,-12 4,0" stroke="#4E9E5E" stroke-width="2" fill="none" stroke-linecap="round"/><path d="M 485,211 q 2,-10 4,0" stroke="#4E9E5E" stroke-width="2" fill="none" stroke-linecap="round"/><path d="M 184,211 q 2,-12 4,0" stroke="#4E9E5E" stroke-width="2" fill="none" stroke-linecap="round"/><path d="M 622,211 q 2,-12 4,0" stroke="#4E9E5E" stroke-width="2" fill="none" stroke-linecap="round"/><path d="M 804,211 q 2,-7 4,0" stroke="#4E9E5E" stroke-width="2" fill="none" stroke-linecap="round"/><path d="M 325,211 q 2,-6 4,0" stroke="#4E9E5E" stroke-width="2" fill="none" stroke-linecap="round"/><path d="M 131,211 q 2,-5 4,0" stroke="#4E9E5E" stroke-width="2" fill="none" stroke-linecap="round"/><path d="M 271,211 q 2,-9 4,0" stroke="#4E9E5E" stroke-width="2" fill="none" stroke-linecap="round"/><path d="M 3,211 q 2,-10 4,0" stroke="#4E9E5E" stroke-width="2" fill="none" stroke-linecap="round"/><path d="M 304,211 q 2,-7 4,0" stroke="#4E9E5E" stroke-width="2" fill="none" stroke-linecap="round"/><path d="M 737,211 q 2,-8 4,0" stroke="#4E9E5E" stroke-width="2" fill="none" stroke-linecap="round"/><path d="M 284,211 q 2,-8 4,0" stroke="#4E9E5E" stroke-width="2" fill="none" stroke-linecap="round"/><path d="M 634,211 q 2,-5 4,0" stroke="#4E9E5E" stroke-width="2" fill="none" stroke-linecap="round"/><path d="M 878,211 q 2,-5 4,0" stroke="#4E9E5E" stroke-width="2" fill="none" stroke-linecap="round"/><path d="M 675,211 q 2,-11 4,0" stroke="#4E9E5E" stroke-width="2" fill="none" stroke-linecap="round"/><path d="M 16,211 q 2,-11 4,0" stroke="#4E9E5E" stroke-width="2" fill="none" stroke-linecap="round"/><path d="M 330,211 q 2,-9 4,0" stroke="#4E9E5E" stroke-width="2" fill="none" stroke-linecap="round"/><path d="M 8,211 q 2,-5 4,0" stroke="#4E9E5E" stroke-width="2" fill="none" stroke-linecap="round"/><path d="M 163,211 q 2,-12 4,0" stroke="#4E9E5E" stroke-width="2" fill="none" stroke-linecap="round"/><path d="M 177,211 q 2,-10 4,0" stroke="#4E9E5E" stroke-width="2" fill="none" stroke-linecap="round"/><path d="M 837,211 q 2,-12 4,0" stroke="#4E9E5E" stroke-width="2" fill="none" stroke-linecap="round"/><path d="M 310,211 q 2,-7 4,0" stroke="#4E9E5E" stroke-width="2" fill="none" stroke-linecap="round"/><path d="M 472,211 q 2,-10 4,0" stroke="#4E9E5E" stroke-width="2" fill="none" stroke-linecap="round"/><path d="M 97,211 q 2,-10 4,0" stroke="#4E9E5E" stroke-width="2" fill="none" stroke-linecap="round"/><path d="M 718,211 q 2,-11 4,0" stroke="#4E9E5E" stroke-width="2" fill="none" stroke-linecap="round"/><path d="M 33,211 q 2,-12 4,0" stroke="#4E9E5E" stroke-width="2" fill="none" stroke-linecap="round"/><path d="M 82,211 q 2,-7 4,0" stroke="#4E9E5E" stroke-width="2" fill="none" stroke-linecap="round"/><path d="M 550,211 q 2,-11 4,0" stroke="#4E9E5E" stroke-width="2" fill="none" stroke-linecap="round"/><ellipse cx="306" cy="259" rx="11" ry="2.5" fill="#3F8A50" opacity="0.5"/><ellipse cx="281" cy="238" rx="8" ry="2.5" fill="#3F8A50" opacity="0.5"/><ellipse cx="70" cy="232" rx="13" ry="2.5" fill="#3F8A50" opacity="0.5"/><ellipse cx="897" cy="233" rx="6" ry="2.5" fill="#3F8A50" opacity="0.5"/><ellipse cx="888" cy="246" rx="10" ry="2.5" fill="#3F8A50" opacity="0.5"/><ellipse cx="214" cy="248" rx="14" ry="2.5" fill="#3F8A50" opacity="0.5"/><ellipse cx="410" cy="242" rx="7" ry="2.5" fill="#3F8A50" opacity="0.5"/><ellipse cx="824" cy="228" rx="11" ry="2.5" fill="#3F8A50" opacity="0.5"/><ellipse cx="755" cy="232" rx="13" ry="2.5" fill="#3F8A50" opacity="0.5"/></g><animateTransform attributeName="transform" type="translate" values="0,0; -900,0" dur="7.0s" repeatCount="indefinite"/></g>

  <g transform="translate(150,205) scale(1.00)"><g><animateTransform attributeName="transform" type="translate" values="0,0; 0,-7; 0,0" dur="0.52s" begin="-0.00s" repeatCount="indefinite" additive="sum"/>
  <g>
    <path d="M 22,-40 L 40,-56 L 33,-52 L 52,-74 L 40,-70 L 54,-92
             L 46,-88 L 50,-104 L 30,-78 L 36,-80 L 22,-58 Z"
          fill="#F7D02C" stroke="#E0A81C" stroke-width="1.5" stroke-linejoin="round">
      <animateTransform attributeName="transform" type="rotate"
        values="-8 22 -40; 10 22 -40; -8 22 -40" dur="0.52s"
        begin="-0.00s" repeatCount="indefinite"/>
    </path>
    <ellipse cx="-9" cy="-6" rx="6" ry="8" fill="#E0A81C"><animateTransform attributeName="transform" type="translate" values="0,0; -3,-7; 0,0" dur="0.52s" begin="-0.00s" repeatCount="indefinite"/></ellipse><ellipse cx="7" cy="-6" rx="6" ry="8" fill="#E0A81C"><animateTransform attributeName="transform" type="translate" values="0,-7; 3,0; 0,-7" dur="0.52s" begin="-0.00s" repeatCount="indefinite"/></ellipse>
    <ellipse cx="0" cy="-30" rx="20" ry="19" fill="#F7D02C"/>
    <path d="M -14,-40 q 8,6 16,0" stroke="#E0A81C" stroke-width="3"
          fill="none" stroke-linecap="round"/>
    <g>
      <path d="M -12,-52 L -22,-88 L -6,-60 Z" fill="#F7D02C" stroke="#E0A81C" stroke-width="1.2"/>
      <path d="M -22,-88 L -18,-77 L -14,-79 Z" fill="#2A2622"/>
      <path d="M 10,-54 L 14,-92 L 22,-60 Z" fill="#F7D02C" stroke="#E0A81C" stroke-width="1.2"/>
      <path d="M 14,-92 L 19,-81 L 21,-84 Z" fill="#2A2622"/>
      <ellipse cx="0" cy="-56" rx="21" ry="19" fill="#F7D02C"/>
      <circle cx="-13" cy="-49" r="5.4" fill="#E3423C"/>
      <circle cx="13" cy="-49" r="5.4" fill="#E3423C"/>
      <circle cx="-7.0" cy="-60.0" r="4.6" fill="#2A2622"/><circle cx="-5.4" cy="-61.7" r="1.7" fill="#fff"/><circle cx="10.0" cy="-60.0" r="4.6" fill="#2A2622"/><circle cx="11.6" cy="-61.7" r="1.7" fill="#fff"/>
      <path d="M 0,-54 l -2.5,-2.5 l 5,0 Z" fill="#2A2622"/>
      <path d="M -4,-50 q 4,4 8,0" stroke="#2A2622" stroke-width="1.6" fill="none"
            stroke-linecap="round"/>
      <animateTransform attributeName="transform" type="rotate"
        values="-3 0 -40; 3 0 -40; -3 0 -40" dur="0.52s"
        begin="-0.00s" repeatCount="indefinite"/>
    </g>
    <g opacity="0">
      <path d="M 20,-52 l 9,-5 l -4,7 l 9,-3 l -12,11 l 3,-8 Z" fill="#FFF07A"/>
      <path d="M -20,-52 l -9,-5 l 4,7 l -9,-3 l 12,11 l -3,-8 Z" fill="#FFF07A"/>
      <animate attributeName="opacity" values="0;0;1;0;0" keyTimes="0;0.6;0.7;0.8;1"
               dur="2.4s" repeatCount="indefinite"/>
    </g>
  </g>
</g></g><g transform="translate(300,205) scale(0.88)"><g><animateTransform attributeName="transform" type="translate" values="0,0; 0,-5; 0,0" dur="0.56s" begin="-0.14s" repeatCount="indefinite" additive="sum"/>
  <g>
    <path d="M 18,-26 q 22,-4 26,-22" stroke="#F0894A" stroke-width="9" fill="none"
          stroke-linecap="round"/>
    <g>
      <path d="M 44,-50 q 9,-9 3,-19 q 10,10 3,22 Z" fill="#FF9B3D"/>
      <path d="M 45,-50 q 5,-6 2,-12 q 6,7 2,14 Z" fill="#FFDA5E"/>
      <animateTransform attributeName="transform" type="rotate"
        values="-9 44 -46; 9 44 -46; -9 44 -46" dur="0.9s" repeatCount="indefinite"/>
    </g>
    <ellipse cx="-9" cy="-6" rx="6" ry="8" fill="#D2703A"><animateTransform attributeName="transform" type="translate" values="0,0; -3,-7; 0,0" dur="0.56s" begin="-0.14s" repeatCount="indefinite"/></ellipse><ellipse cx="7" cy="-6" rx="6" ry="8" fill="#D2703A"><animateTransform attributeName="transform" type="translate" values="0,-7; 3,0; 0,-7" dur="0.56s" begin="-0.14s" repeatCount="indefinite"/></ellipse>
    <ellipse cx="0" cy="-28" rx="17" ry="18" fill="#F0894A"/>
    <ellipse cx="2" cy="-24" rx="10" ry="12" fill="#FBD9A5"/>
    <ellipse cx="2" cy="-52" rx="17" ry="15" fill="#F0894A"/>
    <ellipse cx="12" cy="-48" rx="6" ry="4" fill="#FBD9A5" opacity="0.55"/>
    <circle cx="-3.0" cy="-56.0" r="4.2" fill="#2A2622"/><circle cx="-1.6" cy="-57.6" r="1.5" fill="#fff"/><circle cx="11.0" cy="-56.0" r="4.2" fill="#2A2622"/><circle cx="12.4" cy="-57.6" r="1.5" fill="#fff"/>
    <path d="M 2,-46 q 7,4 13,0" stroke="#B4562A" stroke-width="1.6" fill="none"
          stroke-linecap="round"/>
  </g>
</g></g><g transform="translate(430,205) scale(0.86)"><g><animateTransform attributeName="transform" type="translate" values="0,0; 0,-5; 0,0" dur="0.54s" begin="-0.27s" repeatCount="indefinite" additive="sum"/>
  <g>
    <path d="M 16,-24 q 16,-6 14,-18" stroke="#7BC8E8" stroke-width="8" fill="none"
          stroke-linecap="round"/>
    <ellipse cx="-9" cy="-6" rx="6" ry="8" fill="#4E9DC4"><animateTransform attributeName="transform" type="translate" values="0,0; -3,-7; 0,0" dur="0.54s" begin="-0.27s" repeatCount="indefinite"/></ellipse><ellipse cx="7" cy="-6" rx="6" ry="8" fill="#4E9DC4"><animateTransform attributeName="transform" type="translate" values="0,-7; 3,0; 0,-7" dur="0.54s" begin="-0.27s" repeatCount="indefinite"/></ellipse>
    <ellipse cx="0" cy="-28" rx="19" ry="18" fill="#C98A4B"/>
    <ellipse cx="0" cy="-28" rx="13" ry="12" fill="#E0A868"/>
    <path d="M -13,-28 h 26 M 0,-40 v 24" stroke="#C98A4B" stroke-width="2"/>
    <ellipse cx="4" cy="-24" rx="11" ry="13" fill="#F6E3B8"/>
    <ellipse cx="3" cy="-52" rx="17" ry="15" fill="#7BC8E8"/>
    <circle cx="-2.0" cy="-56.0" r="4.4" fill="#2A2622"/><circle cx="-0.5" cy="-57.7" r="1.6" fill="#fff"/><circle cx="12.0" cy="-56.0" r="4.4" fill="#2A2622"/><circle cx="13.5" cy="-57.7" r="1.6" fill="#fff"/>
    <path d="M 3,-46 q 6,4 11,0" stroke="#4E9DC4" stroke-width="1.6" fill="none"
          stroke-linecap="round"/>
  </g>
</g></g><g transform="translate(560,205) scale(0.86)"><g><animateTransform attributeName="transform" type="translate" values="0,0; 0,-5; 0,0" dur="0.58s" begin="-0.09s" repeatCount="indefinite" additive="sum"/>
  <g>
    <ellipse cx="-9" cy="-6" rx="6" ry="8" fill="#5FA47C"><animateTransform attributeName="transform" type="translate" values="0,0; -3,-7; 0,0" dur="0.58s" begin="-0.09s" repeatCount="indefinite"/></ellipse><ellipse cx="7" cy="-6" rx="6" ry="8" fill="#5FA47C"><animateTransform attributeName="transform" type="translate" values="0,-7; 3,0; 0,-7" dur="0.58s" begin="-0.09s" repeatCount="indefinite"/></ellipse>
    <ellipse cx="-4" cy="-30" rx="20" ry="17" fill="#8FD1A6"/>
    <circle cx="-12" cy="-44" r="13" fill="#77C48E"/>
    <path d="M -20,-50 q 8,-9 16,-2" stroke="#4E8C68" stroke-width="2" fill="none"/>
    <ellipse cx="-14" cy="-33" rx="7" ry="4" fill="#6FAF86" opacity="0.6"/>
    <ellipse cx="8" cy="-46" rx="16" ry="14" fill="#8FD1A6"/>
    <circle cx="4.0" cy="-50.0" r="4.2" fill="#2A2622"/><circle cx="5.4" cy="-51.6" r="1.5" fill="#fff"/><circle cx="17.0" cy="-50.0" r="4.2" fill="#2A2622"/><circle cx="18.4" cy="-51.6" r="1.5" fill="#fff"/>
    <path d="M 6,-40 q 7,4 13,0" stroke="#4E8C68" stroke-width="1.6" fill="none"
          stroke-linecap="round"/>
    <ellipse cx="-4" cy="-26" rx="5" ry="3" fill="#6FAF86" opacity="0.5"/>
  </g>
</g></g><g transform="translate(690,205) scale(0.78)"><g><animateTransform attributeName="transform" type="translate" values="0,0; 0,-8; 0,0" dur="0.50s" begin="-0.33s" repeatCount="indefinite" additive="sum"/>
  <g>
    <ellipse cx="-7" cy="-5" rx="5" ry="6" fill="#DE8FAE"><animateTransform attributeName="transform" type="translate" values="0,0; -3,-7; 0,0" dur="0.50s" begin="-0.33s" repeatCount="indefinite"/></ellipse><ellipse cx="6" cy="-5" rx="5" ry="6" fill="#DE8FAE"><animateTransform attributeName="transform" type="translate" values="0,-7; 3,0; 0,-7" dur="0.50s" begin="-0.33s" repeatCount="indefinite"/></ellipse>
    <circle cx="0" cy="-34" r="24" fill="#F5B8CE"/>
    <path d="M -20,-48 q 6,-12 17,-8 q -9,3 -9,10 Z" fill="#F5B8CE" stroke="#DE8FAE"
          stroke-width="1.2"/>
    <ellipse cx="-14" cy="-28" rx="6" ry="4" fill="#F09BBB" opacity="0.7"/>
    <ellipse cx="14" cy="-28" rx="6" ry="4" fill="#F09BBB" opacity="0.7"/>
    <circle cx="-6.0" cy="-38.0" r="6.0" fill="#2A2622"/><circle cx="-4.0" cy="-40.3" r="2.2" fill="#fff"/><circle cx="11.0" cy="-38.0" r="6.0" fill="#2A2622"/><circle cx="13.0" cy="-40.3" r="2.2" fill="#fff"/>
    <path d="M 0,-28 q 4,4 8,0" stroke="#B5687F" stroke-width="1.6" fill="none"
          stroke-linecap="round"/>
  </g>
</g></g><g transform="translate(810,205) scale(0.84)"><g><animateTransform attributeName="transform" type="translate" values="0,0; 0,-5; 0,0" dur="0.60s" begin="-0.21s" repeatCount="indefinite" additive="sum"/>
  <g>
    <ellipse cx="-9" cy="-6" rx="6" ry="8" fill="#E8B85C"><animateTransform attributeName="transform" type="translate" values="0,0; -3,-7; 0,0" dur="0.60s" begin="-0.21s" repeatCount="indefinite"/></ellipse><ellipse cx="7" cy="-6" rx="6" ry="8" fill="#E8B85C"><animateTransform attributeName="transform" type="translate" values="0,-7; 3,0; 0,-7" dur="0.60s" begin="-0.21s" repeatCount="indefinite"/></ellipse>
    <ellipse cx="0" cy="-28" rx="17" ry="17" fill="#F6DE7A"/>
    <ellipse cx="2" cy="-50" rx="17" ry="16" fill="#F6DE7A"/>
    <ellipse cx="14" cy="-45" rx="9" ry="6" fill="#E8B85C"/>
    <path d="M -10,-64 q 3,-7 5,-1 M -3,-66 q 3,-8 5,-1 M 4,-65 q 3,-7 5,-1"
          stroke="#D9BC4E" stroke-width="2" fill="none" stroke-linecap="round"/>
    <circle cx="-1" cy="-53" r="4" fill="#2A2622"/>
    <circle cx="9" cy="-53" r="4" fill="#2A2622"/>
    <g stroke="#D9BC4E" stroke-width="6" fill="none" stroke-linecap="round">
      <path d="M -14,-38 q -8,-8 -3,-16">
        <animateTransform attributeName="transform" type="rotate"
          values="-6 -14 -38; 8 -14 -38; -6 -14 -38" dur="0.60s"
          begin="-0.21s" repeatCount="indefinite"/>
      </path>
    </g>
  </g>
</g></g>

  <rect width="900" height="270" rx="12" fill="none" stroke="#3F8A50" stroke-width="1.5" opacity="0.35"/>
</g>
</svg>