<svg xmlns="http://www.w3.org/2000/svg" viewBox="0 0 900 516" width="900" height="516" role="img" aria-label="Specimen 119748657 containment chamber">
<defs>
  <radialGradient id="core" cx="50%" cy="50%">
    <stop offset="0%" stop-color="#ffffff" stop-opacity="0.95"/>
    <stop offset="45%" stop-color="#94d142" stop-opacity="0.85"/>
    <stop offset="100%" stop-color="#94d142" stop-opacity="0"/>
  </radialGradient>
  <linearGradient id="vig" x1="0" y1="0" x2="0" y2="1">
    <stop offset="0%" stop-color="#000" stop-opacity="0.5"/>
    <stop offset="35%" stop-color="#000" stop-opacity="0"/>
    <stop offset="100%" stop-color="#000" stop-opacity="0.6"/>
  </linearGradient>
  <pattern id="grid" width="22" height="22" patternUnits="userSpaceOnUse">
    <path d="M22 0 L0 0 0 22" fill="none" stroke="#94d142" stroke-width="0.35" opacity="0.09"/>
  </pattern>
  <clipPath id="chamber"><rect width="900" height="516" rx="10"/></clipPath>
</defs>
<style>
  .lbl { font-size: 9.5px; letter-spacing: 2.2px; fill: #6b7684; font-family: ui-monospace,"SF Mono",Menlo,Consolas,monospace; }
  .val { font-size: 20px; font-weight: 700; fill: #94d142; font-family: ui-monospace,"SF Mono",Menlo,Consolas,monospace; }
  .ttl { font-size: 16px; letter-spacing: 5.5px; fill: #e6edf3; font-weight: 700; font-family: ui-monospace,"SF Mono",Menlo,Consolas,monospace; }
  .sub { font-size: 10px; letter-spacing: 2.4px; fill: #6b7684; font-family: ui-monospace,"SF Mono",Menlo,Consolas,monospace; }
  .tiny { font-size: 8.5px; letter-spacing: 1.6px; fill: #59606b; font-family: ui-monospace,"SF Mono",Menlo,Consolas,monospace; }
  .stage { font-size: 13px; letter-spacing: 3.4px; fill: #94d142; font-weight: 700; font-family: ui-monospace,"SF Mono",Menlo,Consolas,monospace; }
  @keyframes sweep { to { stroke-dashoffset: -1500; } }
  @keyframes scan  { 0% { transform: translateY(-14px); } 100% { transform: translateY(530px); } }
  @keyframes spin  { to { transform: rotate(360deg); } }
  @keyframes rspin { to { transform: rotate(-360deg); } }
  .trace { stroke-dasharray: 240 1260; animation: sweep 3.6s linear infinite; }
  .scanline { animation: scan 6s linear infinite; }
  .ring1 { transform-origin: 158px 196px; animation: spin 24s linear infinite; }
  .ring2 { transform-origin: 158px 196px; animation: rspin 16s linear infinite; }
</style>

<g clip-path="url(#chamber)">
  <rect width="900" height="516" fill="#08090c"/>
  <rect width="900" height="516" fill="url(#grid)"/>

  <!-- HEADER -->
  <text x="36" y="50" class="ttl">CONTAINMENT CHAMBER</text>
  <text x="36" y="72" class="sub">SUBJECT NICKZSCHE21 · DESIGNATION 119748657</text>
  <text x="864" y="50" class="stage" text-anchor="end">STAGE 4 / ACTIVE</text>
  <text x="864" y="72" class="tiny" text-anchor="end">LAST OBSERVATION 2026-08-27 07:25 UTC</text>
  <line x1="36" y1="98" x2="864" y2="98" stroke="#94d142" stroke-width="0.6" opacity="0.20"/>

  <!-- ORGANISM -->
  <g class="ring1">
    <circle cx="158" cy="196" r="72" fill="none" stroke="#94d142"
            stroke-width="0.9" stroke-dasharray="3 9" opacity="0.40"/>
  </g>
  <g class="ring2">
    <circle cx="158" cy="196" r="57" fill="none" stroke="#94d142"
            stroke-width="0.7" stroke-dasharray="14 7" opacity="0.28"/>
  </g>
  <path d="M 158.0,161.0 Q 166.6,162.4 158.0,147.8" fill="none" stroke="#94d142" stroke-width="1.5" stroke-linecap="round" opacity="0.55"><animate attributeName="opacity" values="0.55;0.14;0.55" dur="3.20s" repeatCount="indefinite"/></path><path d="M 182.7,171.3 Q 194.2,178.3 197.6,156.4" fill="none" stroke="#94d142" stroke-width="1.5" stroke-linecap="round" opacity="0.55"><animate attributeName="opacity" values="0.55;0.14;0.55" dur="3.75s" repeatCount="indefinite"/></path><path d="M 193.0,196.0 Q 200.1,214.3 221.8,196.0" fill="none" stroke="#94d142" stroke-width="1.5" stroke-linecap="round" opacity="0.55"><animate attributeName="opacity" values="0.55;0.14;0.55" dur="4.30s" repeatCount="indefinite"/></path><path d="M 182.7,220.7 Q 168.1,229.2 192.1,230.1" fill="none" stroke="#94d142" stroke-width="1.5" stroke-linecap="round" opacity="0.55"><animate attributeName="opacity" values="0.55;0.14;0.55" dur="4.85s" repeatCount="indefinite"/></path><path d="M 158.0,231.0 Q 148.0,235.1 158.0,252.0" fill="none" stroke="#94d142" stroke-width="1.5" stroke-linecap="round" opacity="0.55"><animate attributeName="opacity" values="0.55;0.14;0.55" dur="5.40s" repeatCount="indefinite"/></path><path d="M 133.3,220.7 Q 116.8,216.2 112.9,241.1" fill="none" stroke="#94d142" stroke-width="1.5" stroke-linecap="round" opacity="0.55"><animate attributeName="opacity" values="0.55;0.14;0.55" dur="3.20s" repeatCount="indefinite"/></path><path d="M 123.0,196.0 Q 126.2,182.2 109.8,196.0" fill="none" stroke="#94d142" stroke-width="1.5" stroke-linecap="round" opacity="0.55"><animate attributeName="opacity" values="0.55;0.14;0.55" dur="3.75s" repeatCount="indefinite"/></path><path d="M 133.3,171.3 Q 146.3,157.4 118.4,156.4" fill="none" stroke="#94d142" stroke-width="1.5" stroke-linecap="round" opacity="0.55"><animate attributeName="opacity" values="0.55;0.14;0.55" dur="4.30s" repeatCount="indefinite"/></path>
  <circle cx="158" cy="196" r="46" fill="url(#core)" opacity="0.28">
    <animate attributeName="r" values="46;60;46" dur="1.03s" repeatCount="indefinite"/>
    <animate attributeName="opacity" values="0.28;0.05;0.28" dur="1.03s" repeatCount="indefinite"/>
  </circle>
  <circle cx="158" cy="196" r="26.6" fill="url(#core)">
    <animate attributeName="r" values="26.6;32.5;26.6" dur="1.03s" repeatCount="indefinite"/>
  </circle>
  <circle cx="158" cy="196" r="8.0" fill="#08090c" opacity="0.85"/>
  <text x="158" y="290" class="lbl" text-anchor="middle">STREAK / VELOCITY</text>
  <text x="158" y="314" class="val" text-anchor="middle" style="font-size:16px">3d · 0.37/day</text>
  <line x1="272" y1="120" x2="272" y2="330" stroke="#94d142" stroke-width="0.6" opacity="0.16"/>

  <!-- VITAL TRACE -->
  <line x1="300" y1="196" x2="864" y2="196" stroke="#94d142" stroke-width="0.5" opacity="0.14"/>
  <path d="M 300.0,196.0 L 315.0,196.0 L 320.7,190.9 L 326.3,196.0 L 332.0,203.1 L 337.6,170.6 L 343.2,206.7 L 348.9,196.0 L 363.9,188.4 L 375.2,196.0 L 394.0,196.0 L 409.0,196.0 L 414.7,190.9 L 420.3,196.0 L 426.0,203.1 L 431.6,170.6 L 437.2,206.7 L 442.9,196.0 L 457.9,188.4 L 469.2,196.0 L 488.0,196.0 L 503.0,196.0 L 508.7,190.9 L 514.3,196.0 L 520.0,203.1 L 525.6,170.6 L 531.2,206.7 L 536.9,196.0 L 551.9,188.4 L 563.2,196.0 L 582.0,196.0 L 597.0,196.0 L 602.7,190.9 L 608.3,196.0 L 614.0,203.1 L 619.6,170.6 L 625.2,206.7 L 630.9,196.0 L 645.9,188.4 L 657.2,196.0 L 676.0,196.0 L 691.0,196.0 L 696.7,190.9 L 702.3,196.0 L 708.0,203.1 L 713.6,170.6 L 719.2,206.7 L 724.9,196.0 L 739.9,188.4 L 751.2,196.0 L 770.0,196.0 L 785.0,196.0 L 790.7,190.9 L 796.3,196.0 L 802.0,203.1 L 807.6,170.6 L 813.2,206.7 L 818.9,196.0 L 833.9,188.4 L 845.2,196.0 L 864.0,196.0" fill="none" stroke="#94d142" stroke-width="1.9" stroke-linejoin="round" stroke-linecap="round" opacity="0.26"/>
  <path d="M 300.0,196.0 L 315.0,196.0 L 320.7,190.9 L 326.3,196.0 L 332.0,203.1 L 337.6,170.6 L 343.2,206.7 L 348.9,196.0 L 363.9,188.4 L 375.2,196.0 L 394.0,196.0 L 409.0,196.0 L 414.7,190.9 L 420.3,196.0 L 426.0,203.1 L 431.6,170.6 L 437.2,206.7 L 442.9,196.0 L 457.9,188.4 L 469.2,196.0 L 488.0,196.0 L 503.0,196.0 L 508.7,190.9 L 514.3,196.0 L 520.0,203.1 L 525.6,170.6 L 531.2,206.7 L 536.9,196.0 L 551.9,188.4 L 563.2,196.0 L 582.0,196.0 L 597.0,196.0 L 602.7,190.9 L 608.3,196.0 L 614.0,203.1 L 619.6,170.6 L 625.2,206.7 L 630.9,196.0 L 645.9,188.4 L 657.2,196.0 L 676.0,196.0 L 691.0,196.0 L 696.7,190.9 L 702.3,196.0 L 708.0,203.1 L 713.6,170.6 L 719.2,206.7 L 724.9,196.0 L 739.9,188.4 L 751.2,196.0 L 770.0,196.0 L 785.0,196.0 L 790.7,190.9 L 796.3,196.0 L 802.0,203.1 L 807.6,170.6 L 813.2,206.7 L 818.9,196.0 L 833.9,188.4 L 845.2,196.0 L 864.0,196.0" fill="none" stroke="#94d142" stroke-width="2.4" stroke-linejoin="round" stroke-linecap="round" class="trace"/>
  <text x="300" y="132" class="tiny">CARDIAC TRACE — AMPLITUDE FALLS WITH SILENCE</text>

  <text x="300" y="286" class="lbl">DECAY INDEX</text><text x="300" y="310" class="val">29%</text><text x="441" y="286" class="lbl">INTEGRITY</text><text x="441" y="310" class="val">71%</text><text x="582" y="286" class="lbl">PULSE</text><text x="582" y="310" class="val">58 BPM</text><text x="723" y="286" class="lbl">SILENCE</text><text x="723" y="310" class="val">0d</text>

  <!-- INTEGRITY -->
  <rect x="300" y="330" width="564" height="4" rx="2" fill="#161b22"/>
  <rect x="300" y="330" width="400.4" height="4" rx="2" fill="#94d142">
    <animate attributeName="opacity" values="1;0.4;1" dur="2.07s" repeatCount="indefinite"/>
  </rect>

  <!-- SUBSTRATE -->
  <line x1="36" y1="362" x2="864" y2="362" stroke="#94d142" stroke-width="0.6" opacity="0.20"/>
  <text x="36" y="382" class="tiny">CELLULAR ACTIVITY — 108 EVENTS ACROSS 52 WEEKS</text>
  <text x="864" y="382" class="tiny" text-anchor="end">115 STARS ACCUMULATED · 8 LIVING / 0 NECROTIC</text>
  <rect x="36.0" y="394.0" width="13.3" height="13.3" rx="1.5" fill="#161b22" opacity="1"/><rect x="36.0" y="409.7" width="13.3" height="13.3" rx="1.5" fill="#161b22" opacity="1"/><rect x="36.0" y="425.3" width="13.3" height="13.3" rx="1.5" fill="#161b22" opacity="1"/><rect x="36.0" y="441.0" width="13.3" height="13.3" rx="1.5" fill="#161b22" opacity="1"/><rect x="36.0" y="456.7" width="13.3" height="13.3" rx="1.5" fill="#161b22" opacity="1"/><rect x="36.0" y="472.3" width="13.3" height="13.3" rx="1.5" fill="#161b22" opacity="1"/><rect x="36.0" y="488.0" width="13.3" height="13.3" rx="1.5" fill="#161b22" opacity="1"/><rect x="51.7" y="394.0" width="13.3" height="13.3" rx="1.5" fill="#161b22" opacity="1"/><rect x="51.7" y="409.7" width="13.3" height="13.3" rx="1.5" fill="#161b22" opacity="1"/><rect x="51.7" y="425.3" width="13.3" height="13.3" rx="1.5" fill="#161b22" opacity="1"/><rect x="51.7" y="441.0" width="13.3" height="13.3" rx="1.5" fill="#161b22" opacity="1"/><rect x="51.7" y="456.7" width="13.3" height="13.3" rx="1.5" fill="#161b22" opacity="1"/><rect x="51.7" y="472.3" width="13.3" height="13.3" rx="1.5" fill="#161b22" opacity="1"/><rect x="51.7" y="488.0" width="13.3" height="13.3" rx="1.5" fill="#161b22" opacity="1"/><rect x="67.3" y="394.0" width="13.3" height="13.3" rx="1.5" fill="#161b22" opacity="1"/><rect x="67.3" y="409.7" width="13.3" height="13.3" rx="1.5" fill="#161b22" opacity="1"/><rect x="67.3" y="425.3" width="13.3" height="13.3" rx="1.5" fill="#161b22" opacity="1"/><rect x="67.3" y="441.0" width="13.3" height="13.3" rx="1.5" fill="#161b22" opacity="1"/><rect x="67.3" y="456.7" width="13.3" height="13.3" rx="1.5" fill="#161b22" opacity="1"/><rect x="67.3" y="472.3" width="13.3" height="13.3" rx="1.5" fill="#161b22" opacity="1"/><rect x="67.3" y="488.0" width="13.3" height="13.3" rx="1.5" fill="#161b22" opacity="1"/><rect x="83.0" y="394.0" width="13.3" height="13.3" rx="1.5" fill="#161b22" opacity="1"/><rect x="83.0" y="409.7" width="13.3" height="13.3" rx="1.5" fill="#161b22" opacity="1"/><rect x="83.0" y="425.3" width="13.3" height="13.3" rx="1.5" fill="#161b22" opacity="1"/><rect x="83.0" y="441.0" width="13.3" height="13.3" rx="1.5" fill="#161b22" opacity="1"/><rect x="83.0" y="456.7" width="13.3" height="13.3" rx="1.5" fill="#161b22" opacity="1"/><rect x="83.0" y="472.3" width="13.3" height="13.3" rx="1.5" fill="#161b22" opacity="1"/><rect x="83.0" y="488.0" width="13.3" height="13.3" rx="1.5" fill="#161b22" opacity="1"/><rect x="98.7" y="394.0" width="13.3" height="13.3" rx="1.5" fill="#161b22" opacity="1"/><rect x="98.7" y="409.7" width="13.3" height="13.3" rx="1.5" fill="#161b22" opacity="1"/><rect x="98.7" y="425.3" width="13.3" height="13.3" rx="1.5" fill="#161b22" opacity="1"/><rect x="98.7" y="441.0" width="13.3" height="13.3" rx="1.5" fill="#161b22" opacity="1"/><rect x="98.7" y="456.7" width="13.3" height="13.3" rx="1.5" fill="#161b22" opacity="1"/><rect x="98.7" y="472.3" width="13.3" height="13.3" rx="1.5" fill="#161b22" opacity="1"/><rect x="98.7" y="488.0" width="13.3" height="13.3" rx="1.5" fill="#161b22" opacity="1"/><rect x="114.3" y="394.0" width="13.3" height="13.3" rx="1.5" fill="#161b22" opacity="1"/><rect x="114.3" y="409.7" width="13.3" height="13.3" rx="1.5" fill="#161b22" opacity="1"/><rect x="114.3" y="425.3" width="13.3" height="13.3" rx="1.5" fill="#161b22" opacity="1"/><rect x="114.3" y="441.0" width="13.3" height="13.3" rx="1.5" fill="#161b22" opacity="1"/><rect x="114.3" y="456.7" width="13.3" height="13.3" rx="1.5" fill="#161b22" opacity="1"/><rect x="114.3" y="472.3" width="13.3" height="13.3" rx="1.5" fill="#161b22" opacity="1"/><rect x="114.3" y="488.0" width="13.3" height="13.3" rx="1.5" fill="#161b22" opacity="1"/><rect x="130.0" y="394.0" width="13.3" height="13.3" rx="1.5" fill="#161b22" opacity="1"/><rect x="130.0" y="409.7" width="13.3" height="13.3" rx="1.5" fill="#161b22" opacity="1"/><rect x="130.0" y="425.3" width="13.3" height="13.3" rx="1.5" fill="#161b22" opacity="1"/><rect x="130.0" y="441.0" width="13.3" height="13.3" rx="1.5" fill="#161b22" opacity="1"/><rect x="130.0" y="456.7" width="13.3" height="13.3" rx="1.5" fill="#161b22" opacity="1"/><rect x="130.0" y="472.3" width="13.3" height="13.3" rx="1.5" fill="#161b22" opacity="1"/><rect x="130.0" y="488.0" width="13.3" height="13.3" rx="1.5" fill="#161b22" opacity="1"/><rect x="145.7" y="394.0" width="13.3" height="13.3" rx="1.5" fill="#161b22" opacity="1"/><rect x="145.7" y="409.7" width="13.3" height="13.3" rx="1.5" fill="#161b22" opacity="1"/><rect x="145.7" y="425.3" width="13.3" height="13.3" rx="1.5" fill="#161b22" opacity="1"/><rect x="145.7" y="441.0" width="13.3" height="13.3" rx="1.5" fill="#161b22" opacity="1"/><rect x="145.7" y="456.7" width="13.3" height="13.3" rx="1.5" fill="#161b22" opacity="1"/><rect x="145.7" y="472.3" width="13.3" height="13.3" rx="1.5" fill="#161b22" opacity="1"/><rect x="145.7" y="488.0" width="13.3" height="13.3" rx="1.5" fill="#161b22" opacity="1"/><rect x="161.3" y="394.0" width="13.3" height="13.3" rx="1.5" fill="#161b22" opacity="1"/><rect x="161.3" y="409.7" width="13.3" height="13.3" rx="1.5" fill="#161b22" opacity="1"/><rect x="161.3" y="425.3" width="13.3" height="13.3" rx="1.5" fill="#161b22" opacity="1"/><rect x="161.3" y="441.0" width="13.3" height="13.3" rx="1.5" fill="#161b22" opacity="1"/><rect x="161.3" y="456.7" width="13.3" height="13.3" rx="1.5" fill="#161b22" opacity="1"/><rect x="161.3" y="472.3" width="13.3" height="13.3" rx="1.5" fill="#161b22" opacity="1"/><rect x="161.3" y="488.0" width="13.3" height="13.3" rx="1.5" fill="#161b22" opacity="1"/><rect x="177.0" y="394.0" width="13.3" height="13.3" rx="1.5" fill="#161b22" opacity="1"/><rect x="177.0" y="409.7" width="13.3" height="13.3" rx="1.5" fill="#161b22" opacity="1"/><rect x="177.0" y="425.3" width="13.3" height="13.3" rx="1.5" fill="#161b22" opacity="1"/><rect x="177.0" y="441.0" width="13.3" height="13.3" rx="1.5" fill="#161b22" opacity="1"/><rect x="177.0" y="456.7" width="13.3" height="13.3" rx="1.5" fill="#161b22" opacity="1"/><rect x="177.0" y="472.3" width="13.3" height="13.3" rx="1.5" fill="#161b22" opacity="1"/><rect x="177.0" y="488.0" width="13.3" height="13.3" rx="1.5" fill="#161b22" opacity="1"/><rect x="192.7" y="394.0" width="13.3" height="13.3" rx="1.5" fill="#161b22" opacity="1"/><rect x="192.7" y="409.7" width="13.3" height="13.3" rx="1.5" fill="#161b22" opacity="1"/><rect x="192.7" y="425.3" width="13.3" height="13.3" rx="1.5" fill="#161b22" opacity="1"/><rect x="192.7" y="441.0" width="13.3" height="13.3" rx="1.5" fill="#161b22" opacity="1"/><rect x="192.7" y="456.7" width="13.3" height="13.3" rx="1.5" fill="#161b22" opacity="1"/><rect x="192.7" y="472.3" width="13.3" height="13.3" rx="1.5" fill="#161b22" opacity="1"/><rect x="192.7" y="488.0" width="13.3" height="13.3" rx="1.5" fill="#161b22" opacity="1"/><rect x="208.3" y="394.0" width="13.3" height="13.3" rx="1.5" fill="#161b22" opacity="1"/><rect x="208.3" y="409.7" width="13.3" height="13.3" rx="1.5" fill="#161b22" opacity="1"/><rect x="208.3" y="425.3" width="13.3" height="13.3" rx="1.5" fill="#161b22" opacity="1"/><rect x="208.3" y="441.0" width="13.3" height="13.3" rx="1.5" fill="#161b22" opacity="1"/><rect x="208.3" y="456.7" width="13.3" height="13.3" rx="1.5" fill="#161b22" opacity="1"/><rect x="208.3" y="472.3" width="13.3" height="13.3" rx="1.5" fill="#161b22" opacity="1"/><rect x="208.3" y="488.0" width="13.3" height="13.3" rx="1.5" fill="#161b22" opacity="1"/><rect x="224.0" y="394.0" width="13.3" height="13.3" rx="1.5" fill="#161b22" opacity="1"/><rect x="224.0" y="409.7" width="13.3" height="13.3" rx="1.5" fill="#161b22" opacity="1"/><rect x="224.0" y="425.3" width="13.3" height="13.3" rx="1.5" fill="#161b22" opacity="1"/><rect x="224.0" y="441.0" width="13.3" height="13.3" rx="1.5" fill="#161b22" opacity="1"/><rect x="224.0" y="456.7" width="13.3" height="13.3" rx="1.5" fill="#161b22" opacity="1"/><rect x="224.0" y="472.3" width="13.3" height="13.3" rx="1.5" fill="#161b22" opacity="1"/><rect x="224.0" y="488.0" width="13.3" height="13.3" rx="1.5" fill="#161b22" opacity="1"/><rect x="239.7" y="394.0" width="13.3" height="13.3" rx="1.5" fill="#161b22" opacity="1"/><rect x="239.7" y="409.7" width="13.3" height="13.3" rx="1.5" fill="#161b22" opacity="1"/><rect x="239.7" y="425.3" width="13.3" height="13.3" rx="1.5" fill="#161b22" opacity="1"/><rect x="239.7" y="441.0" width="13.3" height="13.3" rx="1.5" fill="#161b22" opacity="1"/><rect x="239.7" y="456.7" width="13.3" height="13.3" rx="1.5" fill="#161b22" opacity="1"/><rect x="239.7" y="472.3" width="13.3" height="13.3" rx="1.5" fill="#161b22" opacity="1"/><rect x="239.7" y="488.0" width="13.3" height="13.3" rx="1.5" fill="#161b22" opacity="1"/><rect x="255.4" y="394.0" width="13.3" height="13.3" rx="1.5" fill="#161b22" opacity="1"/><rect x="255.4" y="409.7" width="13.3" height="13.3" rx="1.5" fill="#161b22" opacity="1"/><rect x="255.4" y="425.3" width="13.3" height="13.3" rx="1.5" fill="#161b22" opacity="1"/><rect x="255.4" y="441.0" width="13.3" height="13.3" rx="1.5" fill="#161b22" opacity="1"/><rect x="255.4" y="456.7" width="13.3" height="13.3" rx="1.5" fill="#161b22" opacity="1"/><rect x="255.4" y="472.3" width="13.3" height="13.3" rx="1.5" fill="#161b22" opacity="1"/><rect x="255.4" y="488.0" width="13.3" height="13.3" rx="1.5" fill="#161b22" opacity="1"/><rect x="271.0" y="394.0" width="13.3" height="13.3" rx="1.5" fill="#161b22" opacity="1"/><rect x="271.0" y="409.7" width="13.3" height="13.3" rx="1.5" fill="#161b22" opacity="1"/><rect x="271.0" y="425.3" width="13.3" height="13.3" rx="1.5" fill="#161b22" opacity="1"/><rect x="271.0" y="441.0" width="13.3" height="13.3" rx="1.5" fill="#161b22" opacity="1"/><rect x="271.0" y="456.7" width="13.3" height="13.3" rx="1.5" fill="#161b22" opacity="1"/><rect x="271.0" y="472.3" width="13.3" height="13.3" rx="1.5" fill="#161b22" opacity="1"/><rect x="271.0" y="488.0" width="13.3" height="13.3" rx="1.5" fill="#161b22" opacity="1"/><rect x="286.7" y="394.0" width="13.3" height="13.3" rx="1.5" fill="#161b22" opacity="1"/><rect x="286.7" y="409.7" width="13.3" height="13.3" rx="1.5" fill="#161b22" opacity="1"/><rect x="286.7" y="425.3" width="13.3" height="13.3" rx="1.5" fill="#161b22" opacity="1"/><rect x="286.7" y="441.0" width="13.3" height="13.3" rx="1.5" fill="#161b22" opacity="1"/><rect x="286.7" y="456.7" width="13.3" height="13.3" rx="1.5" fill="#161b22" opacity="1"/><rect x="286.7" y="472.3" width="13.3" height="13.3" rx="1.5" fill="#161b22" opacity="1"/><rect x="286.7" y="488.0" width="13.3" height="13.3" rx="1.5" fill="#161b22" opacity="1"/><rect x="302.4" y="394.0" width="13.3" height="13.3" rx="1.5" fill="#161b22" opacity="1"/><rect x="302.4" y="409.7" width="13.3" height="13.3" rx="1.5" fill="#161b22" opacity="1"/><rect x="302.4" y="425.3" width="13.3" height="13.3" rx="1.5" fill="#161b22" opacity="1"/><rect x="302.4" y="441.0" width="13.3" height="13.3" rx="1.5" fill="#161b22" opacity="1"/><rect x="302.4" y="456.7" width="13.3" height="13.3" rx="1.5" fill="#161b22" opacity="1"/><rect x="302.4" y="472.3" width="13.3" height="13.3" rx="1.5" fill="#161b22" opacity="1"/><rect x="302.4" y="488.0" width="13.3" height="13.3" rx="1.5" fill="#161b22" opacity="1"/><rect x="318.0" y="394.0" width="13.3" height="13.3" rx="1.5" fill="#161b22" opacity="1"/><rect x="318.0" y="409.7" width="13.3" height="13.3" rx="1.5" fill="#161b22" opacity="1"/><rect x="318.0" y="425.3" width="13.3" height="13.3" rx="1.5" fill="#161b22" opacity="1"/><rect x="318.0" y="441.0" width="13.3" height="13.3" rx="1.5" fill="#161b22" opacity="1"/><rect x="318.0" y="456.7" width="13.3" height="13.3" rx="1.5" fill="#161b22" opacity="1"/><rect x="318.0" y="472.3" width="13.3" height="13.3" rx="1.5" fill="#161b22" opacity="1"/><rect x="318.0" y="488.0" width="13.3" height="13.3" rx="1.5" fill="#161b22" opacity="1"/><rect x="333.7" y="394.0" width="13.3" height="13.3" rx="1.5" fill="#161b22" opacity="1"/><rect x="333.7" y="409.7" width="13.3" height="13.3" rx="1.5" fill="#161b22" opacity="1"/><rect x="333.7" y="425.3" width="13.3" height="13.3" rx="1.5" fill="#161b22" opacity="1"/><rect x="333.7" y="441.0" width="13.3" height="13.3" rx="1.5" fill="#161b22" opacity="1"/><rect x="333.7" y="456.7" width="13.3" height="13.3" rx="1.5" fill="#161b22" opacity="1"/><rect x="333.7" y="472.3" width="13.3" height="13.3" rx="1.5" fill="#161b22" opacity="1"/><rect x="333.7" y="488.0" width="13.3" height="13.3" rx="1.5" fill="#161b22" opacity="1"/><rect x="349.4" y="394.0" width="13.3" height="13.3" rx="1.5" fill="#161b22" opacity="1"/><rect x="349.4" y="409.7" width="13.3" height="13.3" rx="1.5" fill="#161b22" opacity="1"/><rect x="349.4" y="425.3" width="13.3" height="13.3" rx="1.5" fill="#161b22" opacity="1"/><rect x="349.4" y="441.0" width="13.3" height="13.3" rx="1.5" fill="#161b22" opacity="1"/><rect x="349.4" y="456.7" width="13.3" height="13.3" rx="1.5" fill="#161b22" opacity="1"/><rect x="349.4" y="472.3" width="13.3" height="13.3" rx="1.5" fill="#161b22" opacity="1"/><rect x="349.4" y="488.0" width="13.3" height="13.3" rx="1.5" fill="#161b22" opacity="1"/><rect x="365.0" y="394.0" width="13.3" height="13.3" rx="1.5" fill="#161b22" opacity="1"/><rect x="365.0" y="409.7" width="13.3" height="13.3" rx="1.5" fill="#161b22" opacity="1"/><rect x="365.0" y="425.3" width="13.3" height="13.3" rx="1.5" fill="#161b22" opacity="1"/><rect x="365.0" y="441.0" width="13.3" height="13.3" rx="1.5" fill="#161b22" opacity="1"/><rect x="365.0" y="456.7" width="13.3" height="13.3" rx="1.5" fill="#161b22" opacity="1"/><rect x="365.0" y="472.3" width="13.3" height="13.3" rx="1.5" fill="#161b22" opacity="1"/><rect x="365.0" y="488.0" width="13.3" height="13.3" rx="1.5" fill="#161b22" opacity="1"/><rect x="380.7" y="394.0" width="13.3" height="13.3" rx="1.5" fill="#161b22" opacity="1"/><rect x="380.7" y="409.7" width="13.3" height="13.3" rx="1.5" fill="#161b22" opacity="1"/><rect x="380.7" y="425.3" width="13.3" height="13.3" rx="1.5" fill="#161b22" opacity="1"/><rect x="380.7" y="441.0" width="13.3" height="13.3" rx="1.5" fill="#161b22" opacity="1"/><rect x="380.7" y="456.7" width="13.3" height="13.3" rx="1.5" fill="#161b22" opacity="1"/><rect x="380.7" y="472.3" width="13.3" height="13.3" rx="1.5" fill="#161b22" opacity="1"/><rect x="380.7" y="488.0" width="13.3" height="13.3" rx="1.5" fill="#161b22" opacity="1"/><rect x="396.4" y="394.0" width="13.3" height="13.3" rx="1.5" fill="#161b22" opacity="1"/><rect x="396.4" y="409.7" width="13.3" height="13.3" rx="1.5" fill="#161b22" opacity="1"/><rect x="396.4" y="425.3" width="13.3" height="13.3" rx="1.5" fill="#161b22" opacity="1"/><rect x="396.4" y="441.0" width="13.3" height="13.3" rx="1.5" fill="#161b22" opacity="1"/><rect x="396.4" y="456.7" width="13.3" height="13.3" rx="1.5" fill="#161b22" opacity="1"/><rect x="396.4" y="472.3" width="13.3" height="13.3" rx="1.5" fill="#161b22" opacity="1"/><rect x="396.4" y="488.0" width="13.3" height="13.3" rx="1.5" fill="#161b22" opacity="1"/><rect x="412.0" y="394.0" width="13.3" height="13.3" rx="1.5" fill="#161b22" opacity="1"/><rect x="412.0" y="409.7" width="13.3" height="13.3" rx="1.5" fill="#161b22" opacity="1"/><rect x="412.0" y="425.3" width="13.3" height="13.3" rx="1.5" fill="#161b22" opacity="1"/><rect x="412.0" y="441.0" width="13.3" height="13.3" rx="1.5" fill="#161b22" opacity="1"/><rect x="412.0" y="456.7" width="13.3" height="13.3" rx="1.5" fill="#161b22" opacity="1"/><rect x="412.0" y="472.3" width="13.3" height="13.3" rx="1.5" fill="#161b22" opacity="1"/><rect x="412.0" y="488.0" width="13.3" height="13.3" rx="1.5" fill="#161b22" opacity="1"/><rect x="427.7" y="394.0" width="13.3" height="13.3" rx="1.5" fill="#161b22" opacity="1"/><rect x="427.7" y="409.7" width="13.3" height="13.3" rx="1.5" fill="#161b22" opacity="1"/><rect x="427.7" y="425.3" width="13.3" height="13.3" rx="1.5" fill="#161b22" opacity="1"/><rect x="427.7" y="441.0" width="13.3" height="13.3" rx="1.5" fill="#161b22" opacity="1"/><rect x="427.7" y="456.7" width="13.3" height="13.3" rx="1.5" fill="#161b22" opacity="1"/><rect x="427.7" y="472.3" width="13.3" height="13.3" rx="1.5" fill="#161b22" opacity="1"/><rect x="427.7" y="488.0" width="13.3" height="13.3" rx="1.5" fill="#161b22" opacity="1"/><rect x="443.4" y="394.0" width="13.3" height="13.3" rx="1.5" fill="#161b22" opacity="1"/><rect x="443.4" y="409.7" width="13.3" height="13.3" rx="1.5" fill="#161b22" opacity="1"/><rect x="443.4" y="425.3" width="13.3" height="13.3" rx="1.5" fill="#161b22" opacity="1"/><rect x="443.4" y="441.0" width="13.3" height="13.3" rx="1.5" fill="#161b22" opacity="1"/><rect x="443.4" y="456.7" width="13.3" height="13.3" rx="1.5" fill="#161b22" opacity="1"/><rect x="443.4" y="472.3" width="13.3" height="13.3" rx="1.5" fill="#94d142" opacity="0.82"/><rect x="443.4" y="488.0" width="13.3" height="13.3" rx="1.5" fill="#94d142" opacity="0.42"/><rect x="459.0" y="394.0" width="13.3" height="13.3" rx="1.5" fill="#161b22" opacity="1"/><rect x="459.0" y="409.7" width="13.3" height="13.3" rx="1.5" fill="#161b22" opacity="1"/><rect x="459.0" y="425.3" width="13.3" height="13.3" rx="1.5" fill="#94d142" opacity="0.47"/><rect x="459.0" y="441.0" width="13.3" height="13.3" rx="1.5" fill="#161b22" opacity="1"/><rect x="459.0" y="456.7" width="13.3" height="13.3" rx="1.5" fill="#161b22" opacity="1"/><rect x="459.0" y="472.3" width="13.3" height="13.3" rx="1.5" fill="#161b22" opacity="1"/><rect x="459.0" y="488.0" width="13.3" height="13.3" rx="1.5" fill="#161b22" opacity="1"/><rect x="474.7" y="394.0" width="13.3" height="13.3" rx="1.5" fill="#161b22" opacity="1"/><rect x="474.7" y="409.7" width="13.3" height="13.3" rx="1.5" fill="#161b22" opacity="1"/><rect x="474.7" y="425.3" width="13.3" height="13.3" rx="1.5" fill="#161b22" opacity="1"/><rect x="474.7" y="441.0" width="13.3" height="13.3" rx="1.5" fill="#161b22" opacity="1"/><rect x="474.7" y="456.7" width="13.3" height="13.3" rx="1.5" fill="#161b22" opacity="1"/><rect x="474.7" y="472.3" width="13.3" height="13.3" rx="1.5" fill="#161b22" opacity="1"/><rect x="474.7" y="488.0" width="13.3" height="13.3" rx="1.5" fill="#161b22" opacity="1"/><rect x="490.4" y="394.0" width="13.3" height="13.3" rx="1.5" fill="#161b22" opacity="1"/><rect x="490.4" y="409.7" width="13.3" height="13.3" rx="1.5" fill="#161b22" opacity="1"/><rect x="490.4" y="425.3" width="13.3" height="13.3" rx="1.5" fill="#161b22" opacity="1"/><rect x="490.4" y="441.0" width="13.3" height="13.3" rx="1.5" fill="#161b22" opacity="1"/><rect x="490.4" y="456.7" width="13.3" height="13.3" rx="1.5" fill="#161b22" opacity="1"/><rect x="490.4" y="472.3" width="13.3" height="13.3" rx="1.5" fill="#161b22" opacity="1"/><rect x="490.4" y="488.0" width="13.3" height="13.3" rx="1.5" fill="#161b22" opacity="1"/><rect x="506.0" y="394.0" width="13.3" height="13.3" rx="1.5" fill="#161b22" opacity="1"/><rect x="506.0" y="409.7" width="13.3" height="13.3" rx="1.5" fill="#161b22" opacity="1"/><rect x="506.0" y="425.3" width="13.3" height="13.3" rx="1.5" fill="#94d142" opacity="0.53"/><rect x="506.0" y="441.0" width="13.3" height="13.3" rx="1.5" fill="#161b22" opacity="1"/><rect x="506.0" y="456.7" width="13.3" height="13.3" rx="1.5" fill="#161b22" opacity="1"/><rect x="506.0" y="472.3" width="13.3" height="13.3" rx="1.5" fill="#161b22" opacity="1"/><rect x="506.0" y="488.0" width="13.3" height="13.3" rx="1.5" fill="#161b22" opacity="1"/><rect x="521.7" y="394.0" width="13.3" height="13.3" rx="1.5" fill="#161b22" opacity="1"/><rect x="521.7" y="409.7" width="13.3" height="13.3" rx="1.5" fill="#161b22" opacity="1"/><rect x="521.7" y="425.3" width="13.3" height="13.3" rx="1.5" fill="#161b22" opacity="1"/><rect x="521.7" y="441.0" width="13.3" height="13.3" rx="1.5" fill="#161b22" opacity="1"/><rect x="521.7" y="456.7" width="13.3" height="13.3" rx="1.5" fill="#161b22" opacity="1"/><rect x="521.7" y="472.3" width="13.3" height="13.3" rx="1.5" fill="#161b22" opacity="1"/><rect x="521.7" y="488.0" width="13.3" height="13.3" rx="1.5" fill="#161b22" opacity="1"/><rect x="537.4" y="394.0" width="13.3" height="13.3" rx="1.5" fill="#161b22" opacity="1"/><rect x="537.4" y="409.7" width="13.3" height="13.3" rx="1.5" fill="#161b22" opacity="1"/><rect x="537.4" y="425.3" width="13.3" height="13.3" rx="1.5" fill="#161b22" opacity="1"/><rect x="537.4" y="441.0" width="13.3" height="13.3" rx="1.5" fill="#161b22" opacity="1"/><rect x="537.4" y="456.7" width="13.3" height="13.3" rx="1.5" fill="#161b22" opacity="1"/><rect x="537.4" y="472.3" width="13.3" height="13.3" rx="1.5" fill="#161b22" opacity="1"/><rect x="537.4" y="488.0" width="13.3" height="13.3" rx="1.5" fill="#161b22" opacity="1"/><rect x="553.0" y="394.0" width="13.3" height="13.3" rx="1.5" fill="#161b22" opacity="1"/><rect x="553.0" y="409.7" width="13.3" height="13.3" rx="1.5" fill="#161b22" opacity="1"/><rect x="553.0" y="425.3" width="13.3" height="13.3" rx="1.5" fill="#161b22" opacity="1"/><rect x="553.0" y="441.0" width="13.3" height="13.3" rx="1.5" fill="#161b22" opacity="1"/><rect x="553.0" y="456.7" width="13.3" height="13.3" rx="1.5" fill="#161b22" opacity="1"/><rect x="553.0" y="472.3" width="13.3" height="13.3" rx="1.5" fill="#161b22" opacity="1"/><rect x="553.0" y="488.0" width="13.3" height="13.3" rx="1.5" fill="#161b22" opacity="1"/><rect x="568.7" y="394.0" width="13.3" height="13.3" rx="1.5" fill="#94d142" opacity="0.77"/><rect x="568.7" y="409.7" width="13.3" height="13.3" rx="1.5" fill="#94d142" opacity="1.00"/><rect x="568.7" y="425.3" width="13.3" height="13.3" rx="1.5" fill="#161b22" opacity="1"/><rect x="568.7" y="441.0" width="13.3" height="13.3" rx="1.5" fill="#161b22" opacity="1"/><rect x="568.7" y="456.7" width="13.3" height="13.3" rx="1.5" fill="#161b22" opacity="1"/><rect x="568.7" y="472.3" width="13.3" height="13.3" rx="1.5" fill="#161b22" opacity="1"/><rect x="568.7" y="488.0" width="13.3" height="13.3" rx="1.5" fill="#161b22" opacity="1"/><rect x="584.4" y="394.0" width="13.3" height="13.3" rx="1.5" fill="#94d142" opacity="0.36"/><rect x="584.4" y="409.7" width="13.3" height="13.3" rx="1.5" fill="#94d142" opacity="0.53"/><rect x="584.4" y="425.3" width="13.3" height="13.3" rx="1.5" fill="#94d142" opacity="0.42"/><rect x="584.4" y="441.0" width="13.3" height="13.3" rx="1.5" fill="#161b22" opacity="1"/><rect x="584.4" y="456.7" width="13.3" height="13.3" rx="1.5" fill="#161b22" opacity="1"/><rect x="584.4" y="472.3" width="13.3" height="13.3" rx="1.5" fill="#161b22" opacity="1"/><rect x="584.4" y="488.0" width="13.3" height="13.3" rx="1.5" fill="#161b22" opacity="1"/><rect x="600.0" y="394.0" width="13.3" height="13.3" rx="1.5" fill="#161b22" opacity="1"/><rect x="600.0" y="409.7" width="13.3" height="13.3" rx="1.5" fill="#161b22" opacity="1"/><rect x="600.0" y="425.3" width="13.3" height="13.3" rx="1.5" fill="#161b22" opacity="1"/><rect x="600.0" y="441.0" width="13.3" height="13.3" rx="1.5" fill="#161b22" opacity="1"/><rect x="600.0" y="456.7" width="13.3" height="13.3" rx="1.5" fill="#161b22" opacity="1"/><rect x="600.0" y="472.3" width="13.3" height="13.3" rx="1.5" fill="#161b22" opacity="1"/><rect x="600.0" y="488.0" width="13.3" height="13.3" rx="1.5" fill="#161b22" opacity="1"/><rect x="615.7" y="394.0" width="13.3" height="13.3" rx="1.5" fill="#161b22" opacity="1"/><rect x="615.7" y="409.7" width="13.3" height="13.3" rx="1.5" fill="#161b22" opacity="1"/><rect x="615.7" y="425.3" width="13.3" height="13.3" rx="1.5" fill="#161b22" opacity="1"/><rect x="615.7" y="441.0" width="13.3" height="13.3" rx="1.5" fill="#161b22" opacity="1"/><rect x="615.7" y="456.7" width="13.3" height="13.3" rx="1.5" fill="#161b22" opacity="1"/><rect x="615.7" y="472.3" width="13.3" height="13.3" rx="1.5" fill="#94d142" opacity="0.36"/><rect x="615.7" y="488.0" width="13.3" height="13.3" rx="1.5" fill="#161b22" opacity="1"/><rect x="631.4" y="394.0" width="13.3" height="13.3" rx="1.5" fill="#94d142" opacity="0.42"/><rect x="631.4" y="409.7" width="13.3" height="13.3" rx="1.5" fill="#94d142" opacity="0.36"/><rect x="631.4" y="425.3" width="13.3" height="13.3" rx="1.5" fill="#161b22" opacity="1"/><rect x="631.4" y="441.0" width="13.3" height="13.3" rx="1.5" fill="#161b22" opacity="1"/><rect x="631.4" y="456.7" width="13.3" height="13.3" rx="1.5" fill="#161b22" opacity="1"/><rect x="631.4" y="472.3" width="13.3" height="13.3" rx="1.5" fill="#161b22" opacity="1"/><rect x="631.4" y="488.0" width="13.3" height="13.3" rx="1.5" fill="#161b22" opacity="1"/><rect x="647.0" y="394.0" width="13.3" height="13.3" rx="1.5" fill="#161b22" opacity="1"/><rect x="647.0" y="409.7" width="13.3" height="13.3" rx="1.5" fill="#161b22" opacity="1"/><rect x="647.0" y="425.3" width="13.3" height="13.3" rx="1.5" fill="#161b22" opacity="1"/><rect x="647.0" y="441.0" width="13.3" height="13.3" rx="1.5" fill="#161b22" opacity="1"/><rect x="647.0" y="456.7" width="13.3" height="13.3" rx="1.5" fill="#161b22" opacity="1"/><rect x="647.0" y="472.3" width="13.3" height="13.3" rx="1.5" fill="#161b22" opacity="1"/><rect x="647.0" y="488.0" width="13.3" height="13.3" rx="1.5" fill="#161b22" opacity="1"/><rect x="662.7" y="394.0" width="13.3" height="13.3" rx="1.5" fill="#161b22" opacity="1"/><rect x="662.7" y="409.7" width="13.3" height="13.3" rx="1.5" fill="#161b22" opacity="1"/><rect x="662.7" y="425.3" width="13.3" height="13.3" rx="1.5" fill="#161b22" opacity="1"/><rect x="662.7" y="441.0" width="13.3" height="13.3" rx="1.5" fill="#161b22" opacity="1"/><rect x="662.7" y="456.7" width="13.3" height="13.3" rx="1.5" fill="#94d142" opacity="0.36"/><rect x="662.7" y="472.3" width="13.3" height="13.3" rx="1.5" fill="#161b22" opacity="1"/><rect x="662.7" y="488.0" width="13.3" height="13.3" rx="1.5" fill="#94d142" opacity="0.47"/><rect x="678.4" y="394.0" width="13.3" height="13.3" rx="1.5" fill="#161b22" opacity="1"/><rect x="678.4" y="409.7" width="13.3" height="13.3" rx="1.5" fill="#161b22" opacity="1"/><rect x="678.4" y="425.3" width="13.3" height="13.3" rx="1.5" fill="#161b22" opacity="1"/><rect x="678.4" y="441.0" width="13.3" height="13.3" rx="1.5" fill="#161b22" opacity="1"/><rect x="678.4" y="456.7" width="13.3" height="13.3" rx="1.5" fill="#161b22" opacity="1"/><rect x="678.4" y="472.3" width="13.3" height="13.3" rx="1.5" fill="#161b22" opacity="1"/><rect x="678.4" y="488.0" width="13.3" height="13.3" rx="1.5" fill="#161b22" opacity="1"/><rect x="694.1" y="394.0" width="13.3" height="13.3" rx="1.5" fill="#161b22" opacity="1"/><rect x="694.1" y="409.7" width="13.3" height="13.3" rx="1.5" fill="#161b22" opacity="1"/><rect x="694.1" y="425.3" width="13.3" height="13.3" rx="1.5" fill="#161b22" opacity="1"/><rect x="694.1" y="441.0" width="13.3" height="13.3" rx="1.5" fill="#161b22" opacity="1"/><rect x="694.1" y="456.7" width="13.3" height="13.3" rx="1.5" fill="#161b22" opacity="1"/><rect x="694.1" y="472.3" width="13.3" height="13.3" rx="1.5" fill="#161b22" opacity="1"/><rect x="694.1" y="488.0" width="13.3" height="13.3" rx="1.5" fill="#161b22" opacity="1"/><rect x="709.7" y="394.0" width="13.3" height="13.3" rx="1.5" fill="#161b22" opacity="1"/><rect x="709.7" y="409.7" width="13.3" height="13.3" rx="1.5" fill="#161b22" opacity="1"/><rect x="709.7" y="425.3" width="13.3" height="13.3" rx="1.5" fill="#161b22" opacity="1"/><rect x="709.7" y="441.0" width="13.3" height="13.3" rx="1.5" fill="#161b22" opacity="1"/><rect x="709.7" y="456.7" width="13.3" height="13.3" rx="1.5" fill="#161b22" opacity="1"/><rect x="709.7" y="472.3" width="13.3" height="13.3" rx="1.5" fill="#161b22" opacity="1"/><rect x="709.7" y="488.0" width="13.3" height="13.3" rx="1.5" fill="#161b22" opacity="1"/><rect x="725.4" y="394.0" width="13.3" height="13.3" rx="1.5" fill="#161b22" opacity="1"/><rect x="725.4" y="409.7" width="13.3" height="13.3" rx="1.5" fill="#161b22" opacity="1"/><rect x="725.4" y="425.3" width="13.3" height="13.3" rx="1.5" fill="#161b22" opacity="1"/><rect x="725.4" y="441.0" width="13.3" height="13.3" rx="1.5" fill="#161b22" opacity="1"/><rect x="725.4" y="456.7" width="13.3" height="13.3" rx="1.5" fill="#161b22" opacity="1"/><rect x="725.4" y="472.3" width="13.3" height="13.3" rx="1.5" fill="#161b22" opacity="1"/><rect x="725.4" y="488.0" width="13.3" height="13.3" rx="1.5" fill="#94d142" opacity="0.65"/><rect x="741.1" y="394.0" width="13.3" height="13.3" rx="1.5" fill="#161b22" opacity="1"/><rect x="741.1" y="409.7" width="13.3" height="13.3" rx="1.5" fill="#161b22" opacity="1"/><rect x="741.1" y="425.3" width="13.3" height="13.3" rx="1.5" fill="#94d142" opacity="0.88"/><rect x="741.1" y="441.0" width="13.3" height="13.3" rx="1.5" fill="#161b22" opacity="1"/><rect x="741.1" y="456.7" width="13.3" height="13.3" rx="1.5" fill="#161b22" opacity="1"/><rect x="741.1" y="472.3" width="13.3" height="13.3" rx="1.5" fill="#94d142" opacity="0.59"/><rect x="741.1" y="488.0" width="13.3" height="13.3" rx="1.5" fill="#94d142" opacity="0.53"/><rect x="756.7" y="394.0" width="13.3" height="13.3" rx="1.5" fill="#161b22" opacity="1"/><rect x="756.7" y="409.7" width="13.3" height="13.3" rx="1.5" fill="#94d142" opacity="0.82"/><rect x="756.7" y="425.3" width="13.3" height="13.3" rx="1.5" fill="#94d142" opacity="0.71"/><rect x="756.7" y="441.0" width="13.3" height="13.3" rx="1.5" fill="#94d142" opacity="0.36"/><rect x="756.7" y="456.7" width="13.3" height="13.3" rx="1.5" fill="#94d142" opacity="0.42"/><rect x="756.7" y="472.3" width="13.3" height="13.3" rx="1.5" fill="#161b22" opacity="1"/><rect x="756.7" y="488.0" width="13.3" height="13.3" rx="1.5" fill="#161b22" opacity="1"/><rect x="772.4" y="394.0" width="13.3" height="13.3" rx="1.5" fill="#161b22" opacity="1"/><rect x="772.4" y="409.7" width="13.3" height="13.3" rx="1.5" fill="#161b22" opacity="1"/><rect x="772.4" y="425.3" width="13.3" height="13.3" rx="1.5" fill="#161b22" opacity="1"/><rect x="772.4" y="441.0" width="13.3" height="13.3" rx="1.5" fill="#161b22" opacity="1"/><rect x="772.4" y="456.7" width="13.3" height="13.3" rx="1.5" fill="#161b22" opacity="1"/><rect x="772.4" y="472.3" width="13.3" height="13.3" rx="1.5" fill="#161b22" opacity="1"/><rect x="772.4" y="488.0" width="13.3" height="13.3" rx="1.5" fill="#161b22" opacity="1"/><rect x="788.1" y="394.0" width="13.3" height="13.3" rx="1.5" fill="#161b22" opacity="1"/><rect x="788.1" y="409.7" width="13.3" height="13.3" rx="1.5" fill="#161b22" opacity="1"/><rect x="788.1" y="425.3" width="13.3" height="13.3" rx="1.5" fill="#161b22" opacity="1"/><rect x="788.1" y="441.0" width="13.3" height="13.3" rx="1.5" fill="#161b22" opacity="1"/><rect x="788.1" y="456.7" width="13.3" height="13.3" rx="1.5" fill="#161b22" opacity="1"/><rect x="788.1" y="472.3" width="13.3" height="13.3" rx="1.5" fill="#161b22" opacity="1"/><rect x="788.1" y="488.0" width="13.3" height="13.3" rx="1.5" fill="#161b22" opacity="1"/><rect x="803.7" y="394.0" width="13.3" height="13.3" rx="1.5" fill="#161b22" opacity="1"/><rect x="803.7" y="409.7" width="13.3" height="13.3" rx="1.5" fill="#161b22" opacity="1"/><rect x="803.7" y="425.3" width="13.3" height="13.3" rx="1.5" fill="#161b22" opacity="1"/><rect x="803.7" y="441.0" width="13.3" height="13.3" rx="1.5" fill="#161b22" opacity="1"/><rect x="803.7" y="456.7" width="13.3" height="13.3" rx="1.5" fill="#161b22" opacity="1"/><rect x="803.7" y="472.3" width="13.3" height="13.3" rx="1.5" fill="#161b22" opacity="1"/><rect x="803.7" y="488.0" width="13.3" height="13.3" rx="1.5" fill="#161b22" opacity="1"/><rect x="819.4" y="394.0" width="13.3" height="13.3" rx="1.5" fill="#161b22" opacity="1"/><rect x="819.4" y="409.7" width="13.3" height="13.3" rx="1.5" fill="#161b22" opacity="1"/><rect x="819.4" y="425.3" width="13.3" height="13.3" rx="1.5" fill="#161b22" opacity="1"/><rect x="819.4" y="441.0" width="13.3" height="13.3" rx="1.5" fill="#161b22" opacity="1"/><rect x="819.4" y="456.7" width="13.3" height="13.3" rx="1.5" fill="#161b22" opacity="1"/><rect x="819.4" y="472.3" width="13.3" height="13.3" rx="1.5" fill="#161b22" opacity="1"/><rect x="819.4" y="488.0" width="13.3" height="13.3" rx="1.5" fill="#161b22" opacity="1"/><rect x="835.1" y="394.0" width="13.3" height="13.3" rx="1.5" fill="#161b22" opacity="1"/><rect x="835.1" y="409.7" width="13.3" height="13.3" rx="1.5" fill="#161b22" opacity="1"/><rect x="835.1" y="425.3" width="13.3" height="13.3" rx="1.5" fill="#161b22" opacity="1"/><rect x="835.1" y="441.0" width="13.3" height="13.3" rx="1.5" fill="#161b22" opacity="1"/><rect x="835.1" y="456.7" width="13.3" height="13.3" rx="1.5" fill="#161b22" opacity="1"/><rect x="835.1" y="472.3" width="13.3" height="13.3" rx="1.5" fill="#161b22" opacity="1"/><rect x="835.1" y="488.0" width="13.3" height="13.3" rx="1.5" fill="#161b22" opacity="1"/><rect x="850.7" y="394.0" width="13.3" height="13.3" rx="1.5" fill="#161b22" opacity="1"/><rect x="850.7" y="409.7" width="13.3" height="13.3" rx="1.5" fill="#161b22" opacity="1"/><rect x="850.7" y="425.3" width="13.3" height="13.3" rx="1.5" fill="#94d142" opacity="0.47"/><rect x="850.7" y="441.0" width="13.3" height="13.3" rx="1.5" fill="#94d142" opacity="0.65"/><rect x="850.7" y="456.7" width="13.3" height="13.3" rx="1.5" fill="#94d142" opacity="0.42"/>

  <rect x="0" y="40" width="40" height="2" fill="#94d142" opacity="0"><animate attributeName="opacity" values="0;0.30;0" dur="0.70s" begin="0.00s" repeatCount="indefinite"/></rect><rect x="213" y="177" width="131" height="3" fill="#94d142" opacity="0"><animate attributeName="opacity" values="0;0.30;0" dur="1.15s" begin="0.37s" repeatCount="indefinite"/></rect><rect x="426" y="314" width="222" height="4" fill="#94d142" opacity="0"><animate attributeName="opacity" values="0;0.30;0" dur="1.60s" begin="0.74s" repeatCount="indefinite"/></rect>
  <rect width="900" height="1.5" fill="#94d142" opacity="0.14" class="scanline"/>
  <rect width="900" height="516" fill="url(#vig)"/>
  <rect width="900" height="516" rx="10" fill="none" stroke="#94d142" stroke-width="1" opacity="0.26"/>
</g>
</svg>